<svg xmlns="http://www.w3.org/2000/svg" xmlns:xlink="http://www.w3.org/1999/xlink" width="118" height="45" viewBox="0 0 118 45">
    <defs>
        <path id="a" d="M.026.04v26.129h28.061V.039z"/>
    </defs>
    <g fill="none" fill-rule="evenodd">
        <path d="M-28-12h173.161v69.054H-28z"/>
        <g transform="translate(.448 10.149)">
            <mask id="b" fill="#fff">
                <use xlink:href="#a"/>
            </mask>
            <path fill="#8D8D8D" d="M5.838 10.765s.397-7.045 8.385-7.047c7.957-.002 7.957 7.047 7.957 7.047H5.838zM14.359.04C.473.037-.066 10.797.005 13.59c0 0-.68 12.579 14.015 12.579 12.626 0 13.248-7.893 13.248-7.893l-5.81.011s-1.13 4.349-7.414 4.232c-8.079-.15-8.392-7.94-8.392-7.94h22.38S29.73.044 14.359.04z" mask="url(#b)"/>
        </g>
        <path fill="#8D8D8D" d="M42.741 32.561c-8.817.11-8.674-9.308-8.674-9.308s-.321-9.066 8.66-9.299c8.98-.233 8.688 9.492 8.688 9.492s.143 9.005-8.674 9.115zm1.282-22.373c-6.982-.039-9.985 4.115-9.985 4.115V.404H28.44l.095 29.376s-.034 3.422-.245 5.683h5.436l.233-3.3s2.536 4.154 9.947 4.154 13.263-4.542 13.42-12.967c.155-8.425-6.32-13.123-13.303-13.162z"/>
        <path fill="#8D8D8D" d="M68.559 32.764s-5.61.007-5.94-4.454c-.35-4.762 8.631-4.475 8.631-4.475l6.346-.007s1.027 9.068-9.037 8.936zm14.628-3.1c.013-3.8.125-7.193 0-9.586-.147-2.775.117-9.473-11.937-9.967 0 0-11.556-1.049-12.755 7.512h5.91s.459-3.922 6.456-3.81c5.675.108 6.709 2.878 6.68 6.285 0 0-4.865.014-6.488.022-2.925.015-13.163.337-14.119 6.544-1.136 7.38 5.481 9.683 10.66 9.653 5.177-.029 8.132-1.572 10.326-4.338l.235 3.435 5.149-.029s-.133-1.92-.117-5.721z"/>
        <path fill="#8D8D8D" d="M80.124 11.12h6.494l9.499 18.85 9.518-18.85h5.87L94.323 44.723h-6.28l4.974-9.338L80.124 11.12M113.703 12.465v-.696h-.216v-.26h.216v-.363h.391v.363h.458v.26h-.458v.649c0 .117.077.165.21.165a.657.657 0 0 0 .242-.045v.248a.832.832 0 0 1-.352.067c-.288 0-.49-.097-.49-.388M114.95 11.509h.39v.2a.66.66 0 0 1 .52-.228c.245 0 .42.093.51.233a.761.761 0 0 1 .575-.233c.37 0 .597.183.597.506v.844h-.39v-.751c0-.21-.126-.324-.345-.324-.214 0-.366.116-.366.329v.746h-.39v-.754c0-.205-.13-.32-.345-.32-.216 0-.366.125-.366.328v.746h-.39v-1.322"/>
    </g>
</svg>
