<svg xmlns="http://www.w3.org/2000/svg" width="148" height="32" viewBox="0 0 148 32">
    <g fill="none" fill-rule="evenodd">
        <path d="M-13.143-19h173.16v69.054h-173.16z"/>
        <g fill="#8D8D8D">
            <path d="M.462.73h14.952v14.665H.461V.73M16.94.73h14.953v14.665H16.941C16.94 10.506 16.94 5.618 16.94.73M135.297 6.317c1.378-.88 3.16-.961 4.713-.542.013.905.001 1.812.006 2.718-.738-.319-1.607-.527-2.383-.214-.616.24-.983.86-1.079 1.48-.116.786-.04 1.583-.06 2.374 1.577.004 3.154.001 4.73.002.012-1.004-.012-2.009.014-3.013 1.072-.3 2.133-.635 3.2-.95.009 1.322-.013 2.646.012 3.97 1.065-.015 2.132-.003 3.2-.007v2.576c-1.071-.044-2.143-.012-3.213-.015.004 1.48 0 2.96.002 4.442.017.82-.045 1.645.053 2.462.059.482.238 1.016.698 1.265.772.424 1.75.239 2.46-.226v2.6c-.925.394-1.958.514-2.957.444-.948-.068-1.93-.407-2.55-1.146-.714-.836-.899-1.968-.913-3.027-.008-2.272.001-4.545-.004-6.818-1.577 0-3.155-.002-4.732 0-.002 3.567-.001 7.134-.001 10.7h-3.234c0-3.566-.004-7.13.002-10.696-.75-.014-1.5.004-2.25-.011.002-.846.006-1.694-.002-2.541.746-.017 1.493-.01 2.241-.005.055-1.125-.12-2.283.223-3.38.29-.99.935-1.883 1.824-2.442M66.06 6.502c.652-.096 1.358.122 1.79.622.507.548.6 1.42.225 2.06-.415.723-1.344 1.058-2.153.885-.84-.148-1.54-.914-1.501-1.767-.025-.899.741-1.7 1.64-1.8M41.278 6.895h4.702c1.464 3.646 2.939 7.288 4.404 10.934.375.911.725 1.833 1.118 2.738 1.883-4.556 3.793-9.1 5.662-13.661 1.507-.024 3.016-.005 4.525-.009-.004 6.165-.002 12.33-.001 18.494-1.088-.003-2.176.009-3.264-.006.012-4.55 0-9.099.006-13.649a7.765 7.765 0 0 0-.02-.613c-.064.095-.12.194-.17.296-1.868 4.657-3.773 9.3-5.631 13.961-.774.028-1.55.002-2.324.015-1.928-4.657-3.832-9.325-5.75-13.985a3.502 3.502 0 0 0-.163-.282c-.04 1.994-.006 3.989-.017 5.982.001 2.76-.002 5.52.001 8.281-1.026.003-2.053 0-3.078 0-.001-6.165-.002-12.33 0-18.496M74.96 12.123a9.02 9.02 0 0 1 4.803.014c.322.088.634.21.923.377-.018 1.01 0 2.021-.01 3.032-1.043-.78-2.366-1.276-3.691-1.112-1.053.093-2.057.629-2.686 1.463-.81 1.034-.996 2.407-.857 3.672.104.99.522 1.98 1.307 2.635.815.711 1.958.963 3.025.884 1.055-.12 2.05-.557 2.902-1.168.009.957-.005 1.915.007 2.872-1.322.772-2.907.97-4.42.898-1.548-.08-3.092-.656-4.213-1.723-1.217-1.151-1.878-2.793-1.956-4.438-.08-1.71.275-3.493 1.278-4.92.84-1.219 2.156-2.081 3.588-2.486M96.87 11.895c1.551-.194 3.188-.108 4.629.535a5.663 5.663 0 0 1 2.824 2.8c.599 1.304.744 2.768.643 4.181-.1 1.38-.542 2.763-1.422 3.86-.9 1.164-2.258 1.954-3.712 2.247a9.465 9.465 0 0 1-3.786-.004c-1.487-.312-2.864-1.158-3.736-2.39-1.024-1.426-1.315-3.24-1.185-4.95.088-1.45.548-2.913 1.493-4.051 1.034-1.274 2.621-2.027 4.251-2.228zm.964 2.517c-.774.042-1.555.299-2.128.823-.79.702-1.151 1.749-1.249 2.766-.108 1.119-.03 2.298.491 3.318a3.214 3.214 0 0 0 2.027 1.64c.862.22 1.8.2 2.636-.114.714-.273 1.28-.849 1.588-1.53.467-1.011.513-2.149.456-3.24-.08-.997-.37-2.042-1.116-2.763-.7-.693-1.734-.963-2.705-.9zM110.284 11.921c1.495-.258 3.06-.069 4.476.457.002.973 0 1.944 0 2.916a5.779 5.779 0 0 0-3.396-.984c-.604.023-1.269.274-1.544.837-.22.558-.068 1.289.468 1.623.917.601 2.011.857 2.961 1.396.748.412 1.474.951 1.853 1.728.712 1.455.41 3.378-.842 4.463-1.195 1.096-2.916 1.399-4.5 1.34-1.124-.07-2.254-.288-3.287-.74.004-1.022-.007-2.044.005-3.065a7.143 7.143 0 0 0 2.934 1.242c.739.118 1.543.123 2.232-.201.659-.322.777-1.24.386-1.802-.367-.434-.905-.672-1.412-.907-.953-.42-1.954-.771-2.791-1.401-.588-.45-1.034-1.084-1.208-1.8-.259-1.054-.178-2.242.447-3.163.714-1.074 1.954-1.718 3.218-1.939M122.644 11.89c1.613-.196 3.327-.09 4.8.64 1.284.63 2.28 1.767 2.777 3.083.389 1.007.525 2.094.503 3.166.003 1.601-.438 3.245-1.463 4.515-.959 1.23-2.426 2.028-3.975 2.28-1.515.24-3.116.177-4.555-.379-1.459-.562-2.671-1.71-3.285-3.125-.64-1.442-.708-3.065-.509-4.605.21-1.54.92-3.047 2.133-4.071.993-.856 2.272-1.34 3.574-1.504zm.872 2.525c-.894.049-1.781.427-2.36 1.11-.634.732-.906 1.698-.98 2.64-.076.972 0 1.98.384 2.888.319.763.924 1.426 1.705 1.75.724.306 1.54.36 2.314.247.72-.104 1.42-.442 1.89-.997.465-.552.711-1.248.835-1.946.157-.936.158-1.9-.027-2.833-.164-.794-.522-1.583-1.17-2.11-.702-.605-1.677-.812-2.59-.75zM87.917 12.339c.892-.526 2.027-.57 3-.249-.004 1.058 0 2.116-.002 3.174a3.49 3.49 0 0 0-2.186-.504c-.917.102-1.645.793-2.022 1.586-.41.84-.487 1.789-.46 2.707v6.339h-3.189c-.002-4.416.004-8.834-.002-13.25 1.064-.013 2.128-.008 3.192-.003-.004.759 0 1.517-.003 2.276.346-.825.86-1.626 1.672-2.076M64.714 12.14c1.073-.005 2.146-.015 3.218.005-.013 4.415-.001 8.831-.005 13.247h-3.21c-.004-4.417 0-8.834-.003-13.253M.462 16.891c4.984.002 9.968 0 14.952.002v14.664H.462V16.891M16.942 16.893c4.983-.002 9.967 0 14.951 0v14.664H16.941V16.893"/>
        </g>
    </g>
</svg>
