<svg xmlns="http://www.w3.org/2000/svg" width="153" height="28" viewBox="0 0 153 28">
    <g fill="none" fill-rule="evenodd">
        <path d="M-10.048-21h173.161v69.054h-173.16z"/>
        <g fill="#8D8D8D">
            <path d="M19.175 13.15V4.56c0-1.118-.583-2.353-3.414-2.353v-.731h10.771v.731c-2.827 0-3.406 1.235-3.406 2.352V23.9c0 1.116.58 2.35 3.406 2.35v.732h-10.77v-.733c2.83 0 3.413-1.233 3.413-2.349v-9.17H7.433v9.17c0 1.116.58 2.35 3.41 2.35v.732H.07v-.733c2.828 0 3.41-1.233 3.41-2.349V4.56c0-1.117-.582-2.352-3.41-2.352v-.731h10.771v.731c-2.83 0-3.41 1.235-3.41 2.352v8.591h11.743M27.442 19.238h.89c1.204 3.583 3.915 6.822 8.023 6.822 3.138 0 5.268-2.7 4.379-5.705-1.591-5.394-12.166-5.626-12.166-12.983 0-3.815 3.059-6.436 6.857-6.436 4.106 0 5.965 2.851 6.897 0h.812l.852 8.209h-.966c-.893-3.584-3.451-6.628-7.054-6.628-2.325 0-4.068 1.27-4.068 3.7 0 2.233 2.441 3.812 4.107 4.813 5.269 3.162 8.833 4.818 8.833 9.44 0 3.469-2.906 7.05-8.172 7.05-4.03 0-6.821-2.81-7.21 0h-.852l-1.162-8.282M57.648 12.88c3.913 0 6.199-1.657 6.199-4.775 0-2.932-1.859-4.511-4.571-5.01-3.566-.232-4.807-.307-4.807 1.04v8.746h3.179zm-3.179 10.634c0 1.35.35 2.042 3.179 2.042 4.029 0 7.014-1.194 7.014-5.702 0-4.584-4.612-5.433-8.254-5.433h-1.939v9.093zM50.52 4.559c0-1.117-.583-2.352-3.72-2.352v-.731H57.18c5.969 0 10.62 1.58 10.62 6.512 0 3.235-2.173 4.893-5.153 5.548v.078c3.33.614 6.468 2.656 6.468 6.357 0 4.624-4.028 7.01-10.112 7.01H46.8v-.733c3.137 0 3.72-1.233 3.72-2.349V4.56zM92.372 9.41h-.93c-1.122-4.239-3.95-7.128-8.369-7.128-6.392 0-9.143 5.123-9.143 12.057 0 5.395 2.828 11.21 9.184 11.21 3.797 0 6.393-1.232 9.066-3.851l.658.771c-2.362 2.89-6.355 4.817-10.074 4.817-7.555 0-13.329-4.817-13.329-13.255 0-7.666 5.463-13.332 13.253-13.332 5.307 0 7.246 3.163 8.526.041h.81l.348 8.67M113.3.762h26.061l-13.03 12.956L113.301.762"/>
            <path d="M113.3 26.673h26.061l-13.03-12.955-13.03 12.955M113.3.762v25.911l-13.03-12.955L113.3.762M139.361.762v25.911l13.031-12.955L139.361.762"/>
        </g>
    </g>
</svg>
