<svg xmlns="http://www.w3.org/2000/svg" width="115" height="47" viewBox="0 0 115 47">
    <g fill="none" fill-rule="evenodd">
        <path d="M-30.096-11h173.161v69.054h-173.16z"/>
        <g fill="#8D8D8D">
            <path d="M4.623 29.714c.478-.24.597-.719.597-1.199v-10.67c0-.36-.119-.96-.597-1.2H9.64c2.27 0 4.54.96 4.54 3.597 0 1.32-1.195 2.399-2.509 2.639 1.912 0 3.584 1.078 3.584 3.117 0 2.997-2.987 3.716-5.137 3.716H4.623zm4.062-11.869h-.837v4.556h.598c1.553 0 2.986-.48 2.986-2.278 0-1.799-1.195-2.278-2.747-2.278zm.358 5.755H7.848v4.795c.598.12 1.195.12 1.792.12 1.314 0 2.628-.48 2.628-2.517 0-1.919-1.553-2.398-3.225-2.398zm11.229-5.755h-.597v4.556h.597c1.434 0 2.509-.84 2.509-2.399 0-1.558-1.075-2.157-2.509-2.157zm6.57 11.989c-.478 0-1.075 0-1.552-.24-.837-.24-2.031-2.157-2.51-2.997-.835-1.2-1.433-2.997-3.105-2.997v4.915c0 .48.12.96.597 1.2H16.33c.478-.24.597-.72.597-1.2v-10.67c0-.36-.12-.96-.597-1.2h4.779c2.03 0 4.539.84 4.539 3.357 0 2.04-1.673 3.118-3.584 3.118 2.628 0 4.3 6.355 7.287 6.355-.836.24-1.673.359-2.509.359zm2.629-.12c.358-.12.716-.6.716-1.199v-10.67c0-.6-.358-.96-.716-1.2h4.061c-.358.24-.717.6-.717 1.2v10.67c0 .6.36 1.08.717 1.2h-4.061zm8.72 0c.358-.24.597-.719.597-1.199v-10.31h-2.867c-.716 0-1.433.12-2.03.36l.955-1.92h9.438c.716 0 1.553 0 2.27-.12-.36.96-1.434 1.68-2.031 1.68h-3.106v10.31c0 .48.238.96.716 1.2h-3.942zm8.84 0c.359-.12.717-.6.717-1.199v-10.67c0-.6-.358-.96-.717-1.2h4.062c-.358.24-.717.6-.717 1.2v10.67c0 .6.359 1.08.717 1.2H47.03zm11.827-2.997c0-2.398-5.854-2.997-5.854-6.954 0-2.398 2.27-3.238 4.301-3.238.955 0 2.27.12 3.106.48l.119 2.518c-.477-1.08-1.792-1.918-2.986-1.918-.955 0-1.912.48-1.912 1.559 0 2.517 5.973 3.237 5.973 6.953 0 2.638-2.388 3.837-4.778 3.837-1.314 0-2.986-.24-4.061-.959 0-.48-.12-.96-.12-1.319 0-.6.12-1.079.239-1.678.597 1.558 1.911 2.757 3.704 2.757 1.194 0 2.269-.6 2.269-2.038zm12.424 2.997c.239-.12.597-.6.597-1.199V23.72c-.717-.12-1.672-.12-2.748-.12-1.194 0-2.15 0-2.867.12v4.795c0 .6.36 1.08.598 1.2h-3.823c.239-.12.597-.6.597-1.2v-10.67c0-.6-.358-.96-.597-1.2h3.823c-.239.24-.598.6-.598 1.2v4.436c.717 0 1.673.12 2.867.12 1.076 0 2.031-.12 2.748-.12v-4.436c0-.6-.358-.96-.597-1.2h3.823c-.359.24-.598.6-.598 1.2v10.67c0 .6.24 1.08.598 1.2h-3.823zM9.64 46.62c.12-.12.239-.24.239-.48 0 0-.12-.24-.12-.48 0 0-1.074-2.877-1.194-3.237H3.787c-.12.36-1.315 3.237-1.315 3.237-.119.36-.239.48-.239.6 0 .24.24.24.36.36H-.037c.359-.24.717-.6.955-.96l4.182-11.15c.12 0 .12-.12.12-.12 0-.36-.24-.599-.479-.72h3.345l4.3 11.99c.24.48.598.72.957.96H9.64zM6.176 36.068l-1.911 5.035c.597.12 1.194.12 1.791.12.598 0 1.314 0 2.031-.12L6.176 36.07zm7.765 10.55c.358-.12.717-.6.717-1.198V34.75c0-.6-.359-.959-.717-1.08h4.062c-.36.121-.718.48-.718 1.08v10.67c0 .6.359 1.08.718 1.2H13.94zm10.034-11.87h-.597v4.557h.597c1.434 0 2.51-.72 2.51-2.398 0-1.558-1.076-2.158-2.51-2.158zm6.929 11.99c-.597 0-1.075 0-1.553-.12-.836-.359-2.15-2.277-2.628-3.117-.717-1.198-1.673-2.997-3.345-2.997v4.916c0 .479.12.96.597 1.198h-3.942c.478-.239.598-.719.598-1.198V34.75c0-.36-.12-.959-.598-1.08h4.779c2.03 0 4.54.72 4.54 3.238 0 2.038-1.912 3.117-3.226 3.117 2.747.12 4.42 6.355 7.167 6.355-.716.24-1.553.36-2.389.36zm16.127-11.87l-3.942 11.75c-.358 0-.717-.12-.836-.239-.358-.36-.956-1.918-1.195-2.518l-1.792-4.556-2.627 7.313h-1.195l-4.42-11.75a1.902 1.902 0 0 0-.956-1.198h3.823c-.12.12-.24.24-.24.48 0 .12 0 .36.12.479l2.868 7.793 2.986-8.752 3.345 8.393 2.628-7.673c0-.12.12-.24.12-.36 0-.24-.12-.24-.24-.36h2.51c-.48.24-.837.72-.957 1.198zm4.66 1.2l-1.912 5.035c.597.12 1.194.12 1.792.12.597 0 1.314 0 1.911-.12L51.69 36.07zm3.344 10.55c.239-.12.239-.239.239-.48 0 0 0-.239-.12-.479 0 0-.955-2.877-1.194-3.237H49.3c-.12.36-1.314 3.237-1.314 3.237-.12.36-.239.48-.239.6 0 .24.24.24.358.36h-2.628c.359-.24.717-.6.836-.96l4.301-11.15.12-.12c0-.36-.24-.599-.478-.72H53.6l4.3 11.99c.24.48.598.72.957.96h-3.823zm11.707-11.63l-2.987 5.396v5.036c0 .479.12.96.479 1.198H60.53c.359-.239.478-.719.478-1.198v-5.036l-2.628-4.316c-.239-.36-1.314-2.278-2.748-2.278.36-.12 1.553-.36 2.27-.36 1.315 0 1.911.12 2.628 1.319l2.509 3.956c.239-.36 2.15-3.837 2.15-3.837.24-.359.358-.719.358-.838 0-.12 0-.24-.239-.36h2.748c-.478.24-.955.84-1.314 1.319zm7.168 8.633c0-2.398-5.734-2.997-5.734-6.954 0-2.398 2.27-3.237 4.3-3.237.956 0 2.27.12 3.106.48l.12 2.518c-.478-1.08-1.792-1.919-2.986-1.919-.957 0-1.912.48-1.912 1.559 0 2.518 5.854 3.237 5.854 6.954 0 2.758-2.27 3.836-4.66 3.836-1.313 0-2.986-.24-4.06-.959 0-.48-.12-.839-.12-1.319 0-.6.12-1.079.12-1.558.716 1.439 2.03 2.637 3.702 2.637 1.314 0 2.27-.599 2.27-2.038zM108.872 9.48c-2.269 2.159-7.047 4.077-9.318 4.916-3.224 1.2-4.658 1.679-6.45 2.278-2.031.6-6.093 1.919-6.093 1.919 8.362 2.517 14.336 3.237 14.336 3.237s2.747-.84 7.167-3.237c2.389-1.2 3.465-1.919 4.3-2.758.36-.24 1.195-1.079 1.315-2.158 0-.12.12-.24.12-.48v-.24c-.12-.12-.12-.239-.12-.239s0-.24-.12-.48c0-.12-.238-.72-.716-1.079-.359-.24-.837-.839-2.629-1.439-.597-.24-1.672-.479-1.672-.479l-.12.24"/>
            <path d="M114.288 11.25s0-.24-.12-.36c0-.239-.12-.359-.24-.599-.118-.12-.358-.36-.596-.719-.24-.12-.478-.36-.717-.6-1.194-.719-2.628-1.079-3.942-1.318-2.03-.24-4.42-.24-4.659-.24-.717 0-5.615 0-6.81.12-5.495.12-12.304.12-14.096.12-18.277 0-26.281-.36-35.12-2.159C40.46 4.056 36.28 2.618 36.28 2.618 42.97 2.378 81.794.7 88.843.58 93.5.46 96.727.34 99.355.58c1.434 0 2.628.12 4.18.48 1.435.24 2.749.6 3.465.84 1.553.599 2.987 1.438 3.584 2.397 0 0 .24.12.478.48.239.48.597.96.717 1.08.956 1.558 1.433 2.397 1.553 2.757.238.36.358.72.478 1.079.239.24.239.48.239.6.119.36.119.718.239.839v.12"/>
        </g>
    </g>
</svg>
