<svg xmlns="http://www.w3.org/2000/svg" width="180" height="27" viewBox="0 0 180 27">
    <g fill="#FFF" fill-rule="evenodd">
        <path d="M18.79 1.344c-.24-.083-.484-.17-.74-.245-4.07-1.212-6.333.774-6.934 2.822-.825 2.798.58 4.715 4.22 7.535 4.464 3.456 6.311 6.666 5.017 11.068-.382 1.303-1.021 2.472-1.897 3.439a13.305 13.305 0 0 0 7.734-8.584c1.924-6.532-1.351-13.368-7.4-16.035"/>
        <path d="M12.329 14.03c-4.35-3.176-6.613-6.609-5.372-10.827a8.364 8.364 0 0 1 .736-1.744A13.31 13.31 0 0 0 .55 9.788 13.402 13.402 0 0 0 2.3 21.094c1.487 1.829 2.927 3.203 5.85 4.015 3.959 1.099 7.152-.43 8.04-3.452.826-2.798-.294-4.87-3.862-7.627M173.085 22.742c-.861 0-1.483-.444-1.865-1.334-.382-.889-.574-2.426-.574-4.61v-.456c.023-2.014.22-3.42.59-4.22.37-.8.976-1.2 1.816-1.2 1.614 0 2.422 1.949 2.422 5.843 0 3.985-.796 5.977-2.389 5.977zm5.458-13.086c-.963-1.698-2.284-2.549-3.964-2.549-.818 0-1.544.21-2.174.626-.63.416-1.216 1.142-1.759 2.176h-.231c.132-1.687.204-2.672.216-2.954.01-.28.015-.55.015-.81V0h-4.411v26.27h3.251l.745-2.144h.283c.564.923 1.164 1.568 1.8 1.933.636.367 1.368.55 2.198.55 1.713 0 3.055-.85 4.022-2.55.968-1.7 1.452-4.109 1.452-7.226 0-3.084-.481-5.477-1.443-7.177zm-24.035 5.1c.066-1.43.303-2.485.713-3.167.408-.68.928-1.02 1.558-1.02.675 0 1.205.354 1.593 1.063.387.71.591 1.75.614 3.124h-4.478zm2.304-7.649c-2.156 0-3.836.873-5.042 2.617-1.205 1.745-1.808 4.17-1.808 7.277 0 3.062.666 5.429 1.998 7.099 1.333 1.672 3.155 2.508 5.466 2.508 1.98 0 3.677-.433 5.094-1.3v-3.697c-1.506.91-2.976 1.367-4.414 1.367-1.127 0-2.013-.409-2.653-1.224-.642-.816-.979-2.063-1.012-3.74h8.874v-2.397c0-2.69-.58-4.78-1.74-6.273-1.163-1.49-2.75-2.237-4.763-2.237zm-14.431 8.408c-.177 1.07-.459 3.27-.846 6.602a87.363 87.363 0 0 0-.813-6.5l-2.587-14.03h-4.678l-2.588 14.03c-.243 1.295-.504 3.45-.779 6.466-.354-2.982-.637-5.171-.846-6.568L127.07 1.587h-4.429l4.396 24.684h5.64l2.306-12.866.68-5.082.133-1.249c.155 2.409.415 4.497.78 6.263l2.372 12.934h5.64l4.362-24.684h-4.462l-2.107 13.928zm-23.736-7.648c-.576.507-1.106 1.35-1.593 2.533h-.15l-.497-2.938h-3.633V26.27h4.413v-9.675c0-1.643.286-2.896.862-3.756.575-.862 1.399-1.292 2.471-1.292.498 0 .902.056 1.211.168l.514-4.356a5.112 5.112 0 0 0-1.592-.253c-.763 0-1.432.253-2.006.76zm-13.852 11.178c0 1.226-.24 2.209-.721 2.945-.482.739-1.126 1.106-1.933 1.106-1.084 0-1.625-.777-1.625-2.33 0-1.047.235-1.835.704-2.364.47-.528 1.209-.821 2.216-.877l1.359-.068v1.588zM103.2 7.074c-2.156 0-4.151.59-5.987 1.773l1.525 3.106c1.437-.878 2.71-1.317 3.817-1.317 1.491 0 2.238.877 2.238 2.634v1.35l-2.455.102c-2.123.102-3.718.634-4.785 1.595-1.068.962-1.6 2.434-1.6 4.416 0 1.846.389 3.286 1.169 4.322s1.85 1.553 3.209 1.553c1.062 0 1.941-.208 2.637-.624.698-.417 1.371-1.177 2.024-2.28h.1l.878 2.567h3.236V13.64c0-2.093-.512-3.712-1.534-4.854-1.024-1.143-2.513-1.713-4.472-1.713zM88.802 26.271h4.412V0h-4.412v26.27zM82.847.134c-.762 0-1.356.218-1.783.651-.425.433-.638 1.021-.638 1.764 0 .765.22 1.358.663 1.781.442.423 1.029.633 1.758.633.697 0 1.266-.21 1.71-.633.44-.423.662-1.016.662-1.781 0-.743-.215-1.33-.647-1.764-.431-.433-1.006-.65-1.725-.65zm-2.238 26.137h4.411V7.46H80.61v18.81zM72.016 7.107c-2.08 0-3.588 1.087-4.528 3.258h-.166c-.752-2.171-2.256-3.258-4.513-3.258-.874 0-1.695.223-2.462.668-.77.444-1.375 1.146-1.817 2.101h-.282l-.53-2.414h-3.502V26.27h4.414v-9.033c0-2.252.216-3.866.647-4.846.43-.979 1.121-1.47 2.072-1.47 1.36 0 2.04 1.38 2.04 4.138v11.21h4.448v-9.133c0-2.174.209-3.752.629-4.737.42-.984 1.117-1.477 2.09-1.477 1.338 0 2.007 1.38 2.007 4.137v11.21h4.445V13.997c0-2.25-.423-3.962-1.269-5.133-.846-1.17-2.087-1.756-3.723-1.756zM48.261.134c-.762 0-1.357.218-1.782.651-.426.433-.64 1.021-.64 1.764 0 .765.222 1.358.665 1.781.442.423 1.028.633 1.757.633.697 0 1.267-.21 1.71-.633.441-.423.662-1.016.662-1.781 0-.743-.215-1.33-.645-1.764-.433-.433-1.007-.65-1.727-.65zm-2.238 26.137h4.411V7.46h-4.411v18.81zm-7-13.963c-1.173-.788-1.994-1.492-2.464-2.11-.47-.619-.704-1.346-.704-2.179 0-.844.196-1.51.588-2.001.393-.49.954-.734 1.683-.734.664 0 1.286.123 1.867.371s1.137.53 1.667.844l1.493-3.68c-1.715-1.058-3.5-1.587-5.358-1.587-1.947 0-3.497.62-4.654 1.857-1.154 1.238-1.732 2.916-1.732 5.031 0 1.104.147 2.072.44 2.904a7.607 7.607 0 0 0 1.244 2.255c.535.669 1.323 1.37 2.363 2.102 1.194.832 2.05 1.59 2.57 2.27.52.682.78 1.432.78 2.253 0 .834-.217 1.492-.655 1.977-.436.483-1.086.726-1.949.726-1.514 0-3.179-.603-4.992-1.807v4.541c1.48.844 3.279 1.267 5.39 1.267 2.158 0 3.807-.613 4.953-1.84 1.144-1.228 1.716-2.994 1.716-5.302 0-1.44-.312-2.724-.937-3.85-.625-1.124-1.729-2.228-3.31-3.308z"/>
    </g>
</svg>
