<svg xmlns="http://www.w3.org/2000/svg" width="132" height="25" viewBox="0 0 132 25">
    <g fill="none" fill-rule="evenodd">
        <path d="M-20.191-21.767h173.16v69.054H-20.19z"/>
        <g fill="#8D8D8D">
            <path d="M37.884 19.75c-.602.206-1.23.392-1.859.521-.737.152-1.5.234-2.276.234-2.506 0-4.468-.84-4.79-2.843h10.693c.08-.384.22-1.315.22-2.294 0-4.55-2.246-8.726-7.976-8.726-5.567 0-8.53 4.4-8.53 9.329 0 5.683 3.942 8.934 9.445 8.934 1.402 0 2.426-.127 3.272-.3.878-.18 1.845-.472 2.663-.84l-.862-4.015zM31.8 10.723c2.119 0 2.759 1.951 2.759 3.023h-5.712c0-1.518 1.046-3.023 2.953-3.023zM120.892 19.75c-.603.206-1.23.392-1.86.521-.737.152-1.5.234-2.275.234-2.506 0-4.468-.84-4.789-2.843h10.692c.08-.384.22-1.315.22-2.294 0-4.55-2.247-8.726-7.976-8.726-5.567 0-8.53 4.4-8.53 9.329 0 5.683 3.942 8.934 9.445 8.934 1.401 0 2.426-.127 3.272-.3.878-.18 1.845-.472 2.663-.84l-.862-4.015zm-6.086-9.027c2.12 0 2.76 1.951 2.76 3.023h-5.712c0-1.518 1.046-3.023 2.952-3.023zM42.49 24.53h5.8V.848h-5.8zM59.855 24.905c4.525 0 9.104-2.872 9.104-9.286 0-3.819-2.245-8.949-8.82-8.949-6.769 0-9.237 4.971-9.237 9.24 0 5.357 3.69 8.995 8.953 8.995zm.078-4.335c-1.883 0-3.12-1.877-3.12-4.78 0-2.311.829-4.78 3.14-4.78 2.23 0 3.022 2.559 3.022 4.756 0 2.915-1.203 4.804-3.042 4.804zM71.48 24.53h5.797V7.055H71.48zM71.48 5.393h5.797V.855H71.48zM81.87 2.3v4.752h-2.228v4.331h2.228v7.16c0 3.937 1.786 6.346 5.863 6.346.765 0 1.628-.079 2.423-.199.736-.111 1.389-.246 1.675-.34.004-.005-.043-4.565-.043-4.582-.186.065-1.501.288-1.982.288-.466 0-1.159-.06-1.654-.57-.353-.364-.606-.957-.606-1.921v-6.182h3.747v-4.33h-3.747V1.654L81.87 2.3M95.284 2.3v4.752h-2.228v4.331h2.228v7.16c0 3.937 1.786 6.346 5.864 6.346.764 0 1.627-.079 2.422-.199.736-.111 1.389-.246 1.675-.34.004-.005-.043-4.565-.043-4.582-.187.065-1.5.288-1.981.288-.467 0-1.16-.06-1.654-.57-.354-.364-.606-.957-.606-1.921v-6.182h3.746v-4.33h-3.746V1.654l-5.677.645M125.376 21.677c0-1.785 1.436-3.232 3.207-3.232 1.77 0 3.208 1.447 3.208 3.232 0 1.786-1.437 3.233-3.208 3.233-1.77 0-3.207-1.447-3.207-3.233M9.317 19.838c-.24.02-.603.029-.835.029H6.643c.003-.002 0-14.554 0-14.554a25 25 0 0 1 1.984-.096c3.371 0 6.963 2.205 6.963 7.296 0 5.312-3.376 7.084-6.273 7.325zM.93 24.556h6.561c.445 0 .982-.01 1.403-.033 8.98-.467 12.716-5.824 12.716-12.01C21.61 4.786 16.44.458 7.517.458 5.227.458 3.191.537.93.73v23.827z"/>
        </g>
    </g>
</svg>
